 <svg version="1.0" xmlns="http://www.w3.org/2000/svg"  width="300.000000pt" height="155.000000pt" viewBox="0 0 300.000000 155.000000"  preserveAspectRatio="xMidYMid meet">  <g transform="translate(0.000000,155.000000) scale(0.050000,-0.050000)" fill="#fff" stroke="none"> <path d="M2690 2789 c-768 -193 -1186 -1072 -848 -1782 455 -959 1809 -985 2298 -45 501 963 -395 2092 -1450 1827z m37 -160 c57 -29 110 -58 118 -66 8 -8 -17 -111 -56 -228 l-72 -212 -226 -114 -226 -113 -134 77 c-152 88 -154 99 -60 297 59 125 190 239 394 345 150 78 135 77 262 14z m1123 -239 c77 -77 165 -187 196 -244 l55 -104 -135 70 c-146 74 -505 439 -506 514 0 63 231 -77 390 -236z m-298 -17 c233 -263 223 -236 150 -426 l-63 -161 -279 -26 -279 -26 -87 98 c-48 54 -114 129 -148 167 l-61 69 79 235 79 235 93 7 c52 4 153 9 224 10 l130 2 162 -184z m-1448 -474 l136 -81 0 -114 c0 -63 9 -168 20 -233 l19 -119 -88 -141 c-148 -236 -128 -224 -234 -143 -174 133 -216 620 -72 842 56 87 54 87 219 -11z m1667 -387 l106 -177 -92 -173 c-213 -395 -175 -366 -512 -385 l-137 -7 -138 238 -138 238 107 202 108 202 198 23 c108 12 241 21 295 20 l98 -3 105 -178z m400 -240 c-48 -209 -155 -399 -316 -560 l-141 -142 -23 100 -24 100 120 230 c157 301 152 295 287 371 135 77 138 75 97 -99z m-1594 -39 l227 -46 130 -226 c144 -251 144 -242 20 -386 l-64 -75 -268 50 c-148 27 -276 50 -285 50 -22 0 -217 296 -217 329 0 27 204 351 220 350 6 0 112 -21 237 -46z m102 -774 c124 -22 258 -58 298 -80 l73 -40 -120 12 c-162 16 -335 60 -425 108 -94 49 -97 49 174 0z"/> </g> </svg> 